<?xml version="1.0" standalone="no"?>
<!DOCTYPE svg PUBLIC "-//W3C//DTD SVG 20010904//EN"
 "http://www.w3.org/TR/2001/REC-SVG-20010904/DTD/svg10.dtd">
<svg version="1.0" xmlns="http://www.w3.org/2000/svg"
 x="0px" y="0px" viewBox="0 0 328 54"
 preserveAspectRatio="xMidYMid meet">

<g transform="translate(0.000000,578.000000) scale(0.100000,-0.100000)"
fill="#000000" stroke="none">
<path d="M0 2890 l0 -2890 3755 0 3755 0 0 2890 0 2890 -3755 0 -3755 0 0
-2890z m2168 2251 c22 -31 65 -58 231 -147 181 -97 209 -109 255 -110 45 -1
87 -17 297 -116 194 -92 251 -114 276 -111 80 12 143 -39 143 -116 l0 -47 60
-12 c151 -32 322 -103 409 -172 l51 -40 207 -6 208 -6 20 37 c11 21 32 47 47
58 26 20 28 20 47 3 10 -9 24 -36 29 -59 11 -40 13 -43 63 -54 53 -13 83 -32
101 -67 6 -11 10 -130 9 -312 l-2 -294 83 31 c46 17 128 41 183 55 104 25 322
48 362 38 23 -6 23 -5 23 86 0 90 1 93 31 121 36 33 84 39 105 12 20 -27 17
-70 -6 -86 -18 -13 -21 -23 -18 -82 l3 -67 70 -22 c125 -40 175 -76 199 -140
3 -10 13 -70 21 -132 9 -63 24 -137 36 -166 25 -64 28 -152 5 -195 -17 -35
-74 -83 -97 -83 -7 0 9 -16 38 -35 86 -58 91 -68 85 -182 -4 -98 -1 -127 47
-353 11 -52 28 -143 36 -202 14 -91 20 -112 43 -136 15 -16 48 -52 75 -80 26
-27 47 -55 47 -61 0 -8 -66 -11 -216 -11 l-216 0 6 27 c4 16 16 41 28 57 45
62 2 276 -59 297 -22 8 -23 6 -23 -45 0 -260 -271 -464 -521 -390 -143 43
-243 136 -291 271 -26 75 -26 188 2 267 l20 59 -233 -4 -232 -4 -10 22 c-6 14
-19 23 -31 23 -11 0 -55 3 -98 6 l-76 7 32 -69 c60 -129 48 -293 -32 -409
-103 -150 -291 -218 -459 -166 -120 37 -214 117 -265 225 -28 60 -47 157 -38
201 5 28 0 25 -77 -44 -66 -59 -81 -79 -77 -95 3 -12 6 -26 6 -33 0 -6 20 -15
44 -18 26 -4 47 -13 50 -22 18 -46 -71 -66 -254 -57 -127 6 -137 8 -162 32
-49 46 -27 94 36 78 19 -5 30 5 70 59 35 47 54 65 74 67 24 3 28 8 33 46 5 42
4 45 -28 60 -18 9 -33 19 -33 23 0 4 71 86 159 182 168 187 171 192 171 298
l0 29 379 0 c294 0 380 3 384 13 3 9 -40 11 -205 8 -244 -4 -225 -11 -309 117
-71 108 -92 170 -93 272 -1 75 7 113 63 315 34 127 76 272 93 323 17 54 26
101 23 113 -9 27 -69 83 -122 114 -23 14 -158 65 -300 114 -507 174 -779 296
-926 416 l-55 45 -41 -46 c-43 -49 -85 -128 -95 -179 -134 -700 -220 -1089
-267 -1214 l-10 -24 -30 31 c-29 30 -108 62 -150 62 -15 0 -17 6 -12 37 5 32
4 35 -11 30 -10 -4 -22 -7 -27 -7 -5 0 -9 -17 -9 -38 l0 -38 61 -12 c33 -6 77
-19 97 -29 32 -15 38 -24 42 -58 4 -33 9 -41 30 -43 42 -6 50 -20 51 -91 0
-36 3 -98 7 -137 9 -84 22 -103 182 -275 116 -125 116 -133 -4 -136 -39 0
-116 -4 -171 -8 -73 -5 -124 -3 -191 9 -110 19 -166 42 -253 103 -139 97 -174
148 -174 253 -1 84 25 142 96 218 29 31 63 73 75 92 11 20 32 46 46 59 38 36
33 135 -8 151 -57 21 -58 77 -3 103 32 15 33 19 52 124 11 59 18 115 17 124
-1 8 16 103 38 210 23 106 50 241 61 299 11 58 25 120 30 137 13 40 52 73 79
66 22 -6 18 -17 50 161 39 223 104 388 182 463 54 53 93 73 141 73 32 0 41 -5
65 -39z m769 -3892 c48 -18 81 -58 94 -113 7 -32 10 -125 7 -246 -3 -217 -11
-250 -72 -293 -43 -31 -151 -32 -193 -1 -59 43 -68 79 -71 294 -2 107 -1 214
3 237 7 49 45 100 90 119 37 16 104 18 142 3z m1072 -17 c47 -35 62 -74 64
-164 l2 -83 -67 -3 -67 -3 -3 73 c-3 70 -4 73 -28 73 l-25 0 0 -210 c0 -197 1
-210 19 -213 28 -6 36 15 36 96 l0 73 68 -3 67 -3 3 -60 c8 -138 -37 -216
-133 -230 -91 -14 -152 15 -186 89 -16 35 -19 68 -19 237 0 256 16 313 100
348 38 16 138 6 169 -17z m646 8 c76 -37 80 -52 80 -320 0 -217 -2 -238 -20
-269 -31 -53 -67 -74 -132 -78 -73 -5 -126 23 -157 82 -19 35 -21 61 -24 219
-5 211 2 273 31 318 44 66 141 87 222 48z m1238 6 c58 -24 97 -90 97 -163 0
-22 -4 -23 -69 -23 l-70 0 -3 33 c-2 27 -7 32 -28 32 -18 0 -26 -6 -28 -23 -3
-17 18 -44 83 -112 47 -49 92 -105 100 -124 23 -55 19 -163 -7 -216 -39 -76
-133 -102 -224 -61 -52 24 -76 72 -82 169 l-5 72 71 0 71 0 3 -62 c3 -56 5
-63 25 -66 26 -4 38 25 28 75 -5 26 -29 59 -90 123 -50 53 -88 103 -95 125
-15 47 -7 126 17 168 35 60 132 85 206 53z m-4382 -13 c58 -34 64 -64 64 -313
0 -253 -6 -283 -67 -320 -28 -17 -50 -20 -150 -20 l-118 0 0 335 0 335 121 0
c96 0 127 -4 150 -17z m449 -48 l0 -65 -70 0 -70 0 0 -65 0 -65 65 0 65 0 0
-65 0 -65 -65 0 -65 0 0 -75 0 -74 73 -3 72 -3 3 -62 3 -63 -146 0 -145 0 0
335 0 335 140 0 140 0 0 -65z m313 53 c2 -7 15 -93 28 -192 14 -105 26 -170
30 -160 4 11 18 97 30 192 l22 172 104 0 103 0 0 -90 c1 -49 1 -148 1 -220 0
-71 0 -182 -1 -245 l0 -115 -60 0 -60 0 -1 228 -1 227 -38 -225 c-21 -124 -39
-226 -39 -227 -1 -2 -28 -3 -61 -3 -33 0 -60 1 -61 3 0 1 -17 101 -39 222
l-38 220 -1 -222 -1 -223 -65 0 -65 0 0 335 0 335 104 0 c74 0 105 -4 109 -12z
m1007 -268 l0 -280 70 0 70 0 0 -55 0 -55 -140 0 -140 0 0 335 0 335 70 0 70
0 0 -280z m360 -55 l0 -335 -65 0 -65 0 0 335 0 335 65 0 65 0 0 -335z m660 0
l0 -335 -65 0 -65 0 0 335 0 335 65 0 65 0 0 -335z m718 183 l30 -153 1 153 1
152 65 0 65 0 0 -335 0 -336 -67 3 -67 3 -32 155 -32 155 -1 -157 -1 -158 -65
0 -65 0 0 115 c0 63 -1 174 -1 245 0 72 1 171 1 220 l0 90 69 0 69 0 30 -152z
m550 90 l-3 -63 -67 -3 -68 -3 0 -64 0 -65 65 0 65 0 0 -65 0 -65 -65 0 -65 0
0 -75 0 -74 73 -3 72 -3 3 -62 3 -63 -146 0 -145 0 0 335 0 335 140 0 141 0
-3 -62z"/>
<path d="M2250 4962 c0 -4 5 -23 10 -43 10 -37 11 -37 192 -109 234 -92 479
-182 485 -177 4 5 -241 117 -255 117 -5 0 -27 16 -49 34 -38 33 -383 193 -383
178z"/>
<path d="M1621 3711 c-12 -43 -41 -170 -41 -177 0 -2 16 -4 35 -4 39 0 38 -2
55 110 14 92 13 97 -15 102 -22 5 -26 1 -34 -31z"/>
<path d="M3637 2420 c-184 -58 -180 -331 5 -381 174 -46 314 150 215 300 -44
66 -148 104 -220 81z m126 -34 c103 -44 137 -180 64 -262 -40 -47 -76 -64
-133 -64 -146 0 -226 169 -131 277 53 60 130 79 200 49z"/>
<path d="M3642 2290 c-12 -11 -24 -31 -28 -44 -7 -28 18 -81 41 -90 52 -19
114 11 116 57 2 40 -2 52 -27 75 -31 27 -73 28 -102 2z"/>
<path d="M4972 2384 c-103 -82 -95 -240 16 -319 38 -26 52 -30 108 -29 54 0
71 5 107 30 81 56 109 162 66 251 -24 49 -48 68 -99 77 l-35 7 30 -14 c102
-48 134 -182 63 -263 -41 -47 -77 -64 -134 -64 -115 0 -200 115 -165 222 16
50 71 99 128 114 l48 13 -50 0 c-39 1 -57 -5 -83 -25z"/>
<path d="M5042 2290 c-30 -28 -36 -62 -18 -98 33 -63 120 -57 145 11 28 74
-69 140 -127 87z"/>
<path d="M2845 1118 c-3 -7 -4 -103 -3 -213 3 -198 3 -200 25 -203 32 -5 34
14 31 233 -3 189 -3 190 -26 193 -12 2 -24 -3 -27 -10z"/>
<path d="M4545 1118 c-3 -7 -4 -103 -3 -213 l3 -200 25 0 25 0 0 210 0 210
-23 3 c-12 2 -24 -3 -27 -10z"/>
<path d="M1380 915 l0 -216 28 3 27 3 0 210 0 210 -27 3 -28 3 0 -216z"/>
</g>
</svg>
